<svg width="480" height="450" viewBox="0 0 480 450" xmlns="http://www.w3.org/2000/svg">
  <defs>
    <style>
      .bg { fill: #0d1117; }
      .title { font-family: -apple-system, BlinkMacSystemFont, 'Segoe UI', Helvetica, Arial, sans-serif; font-size: 16px; font-weight: 600; fill: #58a6ff; }
      .subtitle { font-family: -apple-system, BlinkMacSystemFont, 'Segoe UI', Helvetica, Arial, sans-serif; font-size: 12px; fill: #8b949e; }
      .lang-name { font-family: -apple-system, BlinkMacSystemFont, 'Segoe UI', Helvetica, Arial, sans-serif; font-size: 13px; font-weight: 600; fill: #c9d1d9; }
      .lang-stats { font-family: -apple-system, BlinkMacSystemFont, 'Segoe UI', Helvetica, Arial, sans-serif; font-size: 12px; fill: #8b949e; }
      .bar-bg { fill: #21262d; }
    </style>
  </defs>
  
  <!-- Background -->
  <rect class="bg" width="480" height="450" rx="6"/>
  
  <!-- Border -->
  <rect x="0.5" y="0.5" width="479" height="449" rx="6" fill="none" stroke="#30363d" stroke-width="1"/>
  
  <!-- Title -->
  <text x="20" y="32" class="title">📊 My Code Contributions</text>
  <text x="20" y="52" class="subtitle">490.1k lines added • 577 commits • 39 repos analyzed</text>

  <!-- TypeScript -->
  <g transform="translate(20, 85)">
    <!-- Language name with color dot -->
    <circle cx="6" cy="8" r="6" fill="#3178c6"/>
    <text x="18" y="12" class="lang-name">TypeScript</text>
    
    <!-- Bar background -->
    <rect x="0" y="20" width="300" height="10" class="bar-bg" rx="5"/>
    
    <!-- Bar fill -->
    <rect x="0" y="20" width="238.4021291881654" height="10" fill="#3178c6" rx="5"/>
    
    <!-- Stats on right -->
    <text x="315" y="14" class="lang-stats">389.4k lines</text>
    <text x="315" y="30" class="lang-stats" style="fill: #58a6ff;">79.5%</text>
  </g>

  <!-- Dart -->
  <g transform="translate(20, 125)">
    <!-- Language name with color dot -->
    <circle cx="6" cy="8" r="6" fill="#00B4AB"/>
    <text x="18" y="12" class="lang-name">Dart</text>
    
    <!-- Bar background -->
    <rect x="0" y="20" width="300" height="10" class="bar-bg" rx="5"/>
    
    <!-- Bar fill -->
    <rect x="0" y="20" width="29.284093135654103" height="10" fill="#00B4AB" rx="5"/>
    
    <!-- Stats on right -->
    <text x="315" y="14" class="lang-stats">47.8k lines</text>
    <text x="315" y="30" class="lang-stats" style="fill: #58a6ff;">9.8%</text>
  </g>

  <!-- Python -->
  <g transform="translate(20, 165)">
    <!-- Language name with color dot -->
    <circle cx="6" cy="8" r="6" fill="#3572A5"/>
    <text x="18" y="12" class="lang-name">Python</text>
    
    <!-- Bar background -->
    <rect x="0" y="20" width="300" height="10" class="bar-bg" rx="5"/>
    
    <!-- Bar fill -->
    <rect x="0" y="20" width="27.188785840245576" height="10" fill="#3572A5" rx="5"/>
    
    <!-- Stats on right -->
    <text x="315" y="14" class="lang-stats">44.4k lines</text>
    <text x="315" y="30" class="lang-stats" style="fill: #58a6ff;">9.1%</text>
  </g>

  <!-- C++ -->
  <g transform="translate(20, 205)">
    <!-- Language name with color dot -->
    <circle cx="6" cy="8" r="6" fill="#f34b7d"/>
    <text x="18" y="12" class="lang-name">C++</text>
    
    <!-- Bar background -->
    <rect x="0" y="20" width="300" height="10" class="bar-bg" rx="5"/>
    
    <!-- Bar fill -->
    <rect x="0" y="20" width="2.217768271177585" height="10" fill="#f34b7d" rx="5"/>
    
    <!-- Stats on right -->
    <text x="315" y="14" class="lang-stats">3.6k lines</text>
    <text x="315" y="30" class="lang-stats" style="fill: #58a6ff;">0.7%</text>
  </g>

  <!-- JavaScript -->
  <g transform="translate(20, 245)">
    <!-- Language name with color dot -->
    <circle cx="6" cy="8" r="6" fill="#f1e05a"/>
    <text x="18" y="12" class="lang-name">JavaScript</text>
    
    <!-- Bar background -->
    <rect x="0" y="20" width="300" height="10" class="bar-bg" rx="5"/>
    
    <!-- Bar fill -->
    <rect x="0" y="20" width="2" height="10" fill="#f1e05a" rx="5"/>
    
    <!-- Stats on right -->
    <text x="315" y="14" class="lang-stats">2.4k lines</text>
    <text x="315" y="30" class="lang-stats" style="fill: #58a6ff;">0.5%</text>
  </g>

  <!-- SQL -->
  <g transform="translate(20, 285)">
    <!-- Language name with color dot -->
    <circle cx="6" cy="8" r="6" fill="#e38c00"/>
    <text x="18" y="12" class="lang-name">SQL</text>
    
    <!-- Bar background -->
    <rect x="0" y="20" width="300" height="10" class="bar-bg" rx="5"/>
    
    <!-- Bar fill -->
    <rect x="0" y="20" width="2" height="10" fill="#e38c00" rx="5"/>
    
    <!-- Stats on right -->
    <text x="315" y="14" class="lang-stats">1.4k lines</text>
    <text x="315" y="30" class="lang-stats" style="fill: #58a6ff;">0.3%</text>
  </g>

  <!-- Shell -->
  <g transform="translate(20, 325)">
    <!-- Language name with color dot -->
    <circle cx="6" cy="8" r="6" fill="#89e051"/>
    <text x="18" y="12" class="lang-name">Shell</text>
    
    <!-- Bar background -->
    <rect x="0" y="20" width="300" height="10" class="bar-bg" rx="5"/>
    
    <!-- Bar fill -->
    <rect x="0" y="20" width="2" height="10" fill="#89e051" rx="5"/>
    
    <!-- Stats on right -->
    <text x="315" y="14" class="lang-stats">665 lines</text>
    <text x="315" y="30" class="lang-stats" style="fill: #58a6ff;">0.1%</text>
  </g>

  <!-- Swift -->
  <g transform="translate(20, 365)">
    <!-- Language name with color dot -->
    <circle cx="6" cy="8" r="6" fill="#F05138"/>
    <text x="18" y="12" class="lang-name">Swift</text>
    
    <!-- Bar background -->
    <rect x="0" y="20" width="300" height="10" class="bar-bg" rx="5"/>
    
    <!-- Bar fill -->
    <rect x="0" y="20" width="2" height="10" fill="#F05138" rx="5"/>
    
    <!-- Stats on right -->
    <text x="315" y="14" class="lang-stats">259 lines</text>
    <text x="315" y="30" class="lang-stats" style="fill: #58a6ff;">0.1%</text>
  </g>
</svg>