<svg width="450" height="378" viewBox="0 0 450 378" xmlns="http://www.w3.org/2000/svg">
  <defs>
    <style>
      @import url('https://fonts.googleapis.com/css2?family=JetBrains+Mono:wght@400;600&amp;display=swap');
      .bg { fill: #0d1117; }
      .title { font-family: 'JetBrains Mono', monospace; font-size: 16px; font-weight: 600; fill: #58a6ff; }
      .lang-name { font-family: 'JetBrains Mono', monospace; font-size: 12px; font-weight: 600; fill: #c9d1d9; }
      .lang-stats { font-family: 'JetBrains Mono', monospace; font-size: 11px; fill: #8b949e; }
      .bar-bg { fill: #21262d; rx: 4; }
    </style>
  </defs>
  
  <!-- Background -->
  <rect class="bg" width="450" height="378" rx="8"/>
  
  <!-- Border -->
  <rect x="0.5" y="0.5" width="449" height="377" rx="8" fill="none" stroke="#30363d" stroke-width="1"/>
  
  <!-- Title -->
  <text x="20" y="32" class="title">📊 Code Statistics</text>

  <!-- C++ -->
  <g transform="translate(20, 60)">
    <!-- Language name -->
    <text x="0" y="12" class="lang-name">C++</text>
    
    <!-- Bar background -->
    <rect x="0" y="18" width="250" height="8" class="bar-bg"/>
    
    <!-- Bar fill -->
    <rect x="0" y="18" width="168.2510372717042" height="8" fill="#f34b7d" rx="4"/>
    
    <!-- Stats -->
    <text x="260" y="12" class="lang-stats">19.7M lines</text>
    <text x="260" y="26" class="lang-stats">67.3%</text>
  </g>

  <!-- Mathematica -->
  <g transform="translate(20, 96)">
    <!-- Language name -->
    <text x="0" y="12" class="lang-name">Mathematica</text>
    
    <!-- Bar background -->
    <rect x="0" y="18" width="250" height="8" class="bar-bg"/>
    
    <!-- Bar fill -->
    <rect x="0" y="18" width="28.631674041618684" height="8" fill="#858585" rx="4"/>
    
    <!-- Stats -->
    <text x="260" y="12" class="lang-stats">3.3M lines</text>
    <text x="260" y="26" class="lang-stats">11.5%</text>
  </g>

  <!-- Dart -->
  <g transform="translate(20, 132)">
    <!-- Language name -->
    <text x="0" y="12" class="lang-name">Dart</text>
    
    <!-- Bar background -->
    <rect x="0" y="18" width="250" height="8" class="bar-bg"/>
    
    <!-- Bar fill -->
    <rect x="0" y="18" width="12.855694761453085" height="8" fill="#00B4AB" rx="4"/>
    
    <!-- Stats -->
    <text x="260" y="12" class="lang-stats">1.5M lines</text>
    <text x="260" y="26" class="lang-stats">5.1%</text>
  </g>

  <!-- C# -->
  <g transform="translate(20, 168)">
    <!-- Language name -->
    <text x="0" y="12" class="lang-name">C#</text>
    
    <!-- Bar background -->
    <rect x="0" y="18" width="250" height="8" class="bar-bg"/>
    
    <!-- Bar fill -->
    <rect x="0" y="18" width="11.118837178647665" height="8" fill="#178600" rx="4"/>
    
    <!-- Stats -->
    <text x="260" y="12" class="lang-stats">1.3M lines</text>
    <text x="260" y="26" class="lang-stats">4.4%</text>
  </g>

  <!-- TypeScript -->
  <g transform="translate(20, 204)">
    <!-- Language name -->
    <text x="0" y="12" class="lang-name">TypeScript</text>
    
    <!-- Bar background -->
    <rect x="0" y="18" width="250" height="8" class="bar-bg"/>
    
    <!-- Bar fill -->
    <rect x="0" y="18" width="7.23924296360767" height="8" fill="#3178c6" rx="4"/>
    
    <!-- Stats -->
    <text x="260" y="12" class="lang-stats">846k lines</text>
    <text x="260" y="26" class="lang-stats">2.9%</text>
  </g>

  <!-- C -->
  <g transform="translate(20, 240)">
    <!-- Language name -->
    <text x="0" y="12" class="lang-name">C</text>
    
    <!-- Bar background -->
    <rect x="0" y="18" width="250" height="8" class="bar-bg"/>
    
    <!-- Bar fill -->
    <rect x="0" y="18" width="7.216771037822634" height="8" fill="#555555" rx="4"/>
    
    <!-- Stats -->
    <text x="260" y="12" class="lang-stats">843k lines</text>
    <text x="260" y="26" class="lang-stats">2.9%</text>
  </g>

  <!-- Python -->
  <g transform="translate(20, 276)">
    <!-- Language name -->
    <text x="0" y="12" class="lang-name">Python</text>
    
    <!-- Bar background -->
    <rect x="0" y="18" width="250" height="8" class="bar-bg"/>
    
    <!-- Bar fill -->
    <rect x="0" y="18" width="5.648158093438003" height="8" fill="#3572A5" rx="4"/>
    
    <!-- Stats -->
    <text x="260" y="12" class="lang-stats">660k lines</text>
    <text x="260" y="26" class="lang-stats">2.3%</text>
  </g>

  <!-- HLSL -->
  <g transform="translate(20, 312)">
    <!-- Language name -->
    <text x="0" y="12" class="lang-name">HLSL</text>
    
    <!-- Bar background -->
    <rect x="0" y="18" width="250" height="8" class="bar-bg"/>
    
    <!-- Bar fill -->
    <rect x="0" y="18" width="3.1643496572263285" height="8" fill="#858585" rx="4"/>
    
    <!-- Stats -->
    <text x="260" y="12" class="lang-stats">370k lines</text>
    <text x="260" y="26" class="lang-stats">1.3%</text>
  </g>
</svg>