<svg width="480" height="450" viewBox="0 0 480 450" xmlns="http://www.w3.org/2000/svg">
  <defs>
    <style>
      .bg { fill: #0d1117; }
      .title { font-family: -apple-system, BlinkMacSystemFont, 'Segoe UI', Helvetica, Arial, sans-serif; font-size: 16px; font-weight: 600; fill: #58a6ff; }
      .subtitle { font-family: -apple-system, BlinkMacSystemFont, 'Segoe UI', Helvetica, Arial, sans-serif; font-size: 12px; fill: #8b949e; }
      .lang-name { font-family: -apple-system, BlinkMacSystemFont, 'Segoe UI', Helvetica, Arial, sans-serif; font-size: 13px; font-weight: 600; fill: #c9d1d9; }
      .lang-stats { font-family: -apple-system, BlinkMacSystemFont, 'Segoe UI', Helvetica, Arial, sans-serif; font-size: 12px; fill: #8b949e; }
      .bar-bg { fill: #21262d; }
    </style>
  </defs>
  <rect class="bg" width="480" height="450" rx="6"/>
  <rect x="0.5" y="0.5" width="479" height="449" rx="6" fill="none" stroke="#30363d" stroke-width="1"/>
  <text x="20" y="32" class="title">📊 My Code Contributions</text>
  <text x="20" y="52" class="subtitle">2.0M lines added • 6.1k commits • 86 repos analyzed</text>

  <g transform="translate(20, 85)">
    <circle cx="6" cy="8" r="6" fill="#3178c6"/>
    <text x="18" y="12" class="lang-name">TypeScript</text>
    <rect x="0" y="20" width="300" height="10" class="bar-bg" rx="5"/>
    <rect x="0" y="20" width="214.5339396399726" height="10" fill="#3178c6" rx="5"/>
    <text x="315" y="14" class="lang-stats">1.4M lines</text>
    <text x="315" y="30" class="lang-stats" style="fill: #58a6ff;">71.5%</text>
  </g>

  <g transform="translate(20, 125)">
    <circle cx="6" cy="8" r="6" fill="#3572A5"/>
    <text x="18" y="12" class="lang-name">Python</text>
    <rect x="0" y="20" width="300" height="10" class="bar-bg" rx="5"/>
    <rect x="0" y="20" width="47.81844731373037" height="10" fill="#3572A5" rx="5"/>
    <text x="315" y="14" class="lang-stats">315.7k lines</text>
    <text x="315" y="30" class="lang-stats" style="fill: #58a6ff;">15.9%</text>
  </g>

  <g transform="translate(20, 165)">
    <circle cx="6" cy="8" r="6" fill="#f1e05a"/>
    <text x="18" y="12" class="lang-name">JavaScript</text>
    <rect x="0" y="20" width="300" height="10" class="bar-bg" rx="5"/>
    <rect x="0" y="20" width="22.12362838775349" height="10" fill="#f1e05a" rx="5"/>
    <text x="315" y="14" class="lang-stats">146.1k lines</text>
    <text x="315" y="30" class="lang-stats" style="fill: #58a6ff;">7.4%</text>
  </g>

  <g transform="translate(20, 205)">
    <circle cx="6" cy="8" r="6" fill="#00B4AB"/>
    <text x="18" y="12" class="lang-name">Dart</text>
    <rect x="0" y="20" width="300" height="10" class="bar-bg" rx="5"/>
    <rect x="0" y="20" width="7.2444756820949685" height="10" fill="#00B4AB" rx="5"/>
    <text x="315" y="14" class="lang-stats">47.8k lines</text>
    <text x="315" y="30" class="lang-stats" style="fill: #58a6ff;">2.4%</text>
  </g>

  <g transform="translate(20, 245)">
    <circle cx="6" cy="8" r="6" fill="#e38c00"/>
    <text x="18" y="12" class="lang-name">SQL</text>
    <rect x="0" y="20" width="300" height="10" class="bar-bg" rx="5"/>
    <rect x="0" y="20" width="3.0289076180146997" height="10" fill="#e38c00" rx="5"/>
    <text x="315" y="14" class="lang-stats">20.0k lines</text>
    <text x="315" y="30" class="lang-stats" style="fill: #58a6ff;">1.0%</text>
  </g>

  <g transform="translate(20, 285)">
    <circle cx="6" cy="8" r="6" fill="#f34b7d"/>
    <text x="18" y="12" class="lang-name">C++</text>
    <rect x="0" y="20" width="300" height="10" class="bar-bg" rx="5"/>
    <rect x="0" y="20" width="2.75488812006568" height="10" fill="#f34b7d" rx="5"/>
    <text x="315" y="14" class="lang-stats">18.2k lines</text>
    <text x="315" y="30" class="lang-stats" style="fill: #58a6ff;">0.9%</text>
  </g>

  <g transform="translate(20, 325)">
    <circle cx="6" cy="8" r="6" fill="#89e051"/>
    <text x="18" y="12" class="lang-name">Shell</text>
    <rect x="0" y="20" width="300" height="10" class="bar-bg" rx="5"/>
    <rect x="0" y="20" width="2" height="10" fill="#89e051" rx="5"/>
    <text x="315" y="14" class="lang-stats">12.0k lines</text>
    <text x="315" y="30" class="lang-stats" style="fill: #58a6ff;">0.6%</text>
  </g>

  <g transform="translate(20, 365)">
    <circle cx="6" cy="8" r="6" fill="#555555"/>
    <text x="18" y="12" class="lang-name">C</text>
    <rect x="0" y="20" width="300" height="10" class="bar-bg" rx="5"/>
    <rect x="0" y="20" width="2" height="10" fill="#555555" rx="5"/>
    <text x="315" y="14" class="lang-stats">4.5k lines</text>
    <text x="315" y="30" class="lang-stats" style="fill: #58a6ff;">0.2%</text>
  </g>
</svg>